# xmcd
#
# Track frame offsets:
#	150
#	17241
#	33605
#	51569
#	69815
#	86393
#	104104
#	118230
#	137965
#	151962
#	170423
#
# Disc length: 2431 seconds
#
# Revision: 0
# Processed by: cddbd v1.5.2PL0 Copyright (c) Steve Scherf et al.
# Submitted via: audiograbber 1.83.01
#
DISCID=9b097d0b
DTITLE=Jade Jackson - Gilded
DYEAR=2017
DGENRE=Country
TTITLE0=Aden
TTITLE1=Back When
TTITLE2=Bridges
TTITLE3=Finish Line
TTITLE4=Troubled End
TTITLE5=Good Time Gone
TTITLE6=Salt To Sugar
TTITLE7=No Guarantees
TTITLE8=Motorcycle
TTITLE9=Gilded
TTITLE10=Better Off
EXTD=
EXTT0=
EXTT1=
EXTT2=
EXTT3=
EXTT4=
EXTT5=
EXTT6=
EXTT7=
EXTT8=
EXTT9=
EXTT10=
PLAYORDER=
